<?xml version="1.0" standalone="no"?>
<!DOCTYPE svg PUBLIC "-//W3C//DTD SVG 20010904//EN"
 "http://www.w3.org/TR/2001/REC-SVG-20010904/DTD/svg10.dtd">
<svg version="1.0" xmlns="http://www.w3.org/2000/svg"
 width="675.000000pt" height="150.000000pt" viewBox="0 0 675.000000 150.000000"
 preserveAspectRatio="xMidYMid meet">

<g transform="translate(0.000000,150.000000) scale(0.100000,-0.100000)"
fill="#000000" stroke="none">
<path d="M885 1463 c-220 -31 -330 -119 -505 -410 -118 -196 -184 -259 -298
-283 l-52 -12 0 -129 0 -130 47 6 c133 18 257 76 346 163 52 51 134 167 213
301 27 45 73 109 102 141 55 62 99 83 195 96 l47 7 0 128 0 129 -32 -1 c-18
-1 -46 -4 -63 -6z"/>
<path d="M1045 1042 c0 -235 -4 -451 -8 -479 l-8 -53 396 0 395 0 2 85 c1 47
2 95 2 107 1 21 -2 21 -139 19 -77 0 -186 -4 -242 -7 l-103 -7 0 115 c0 63 3
190 7 283 l6 168 239 -8 238 -7 0 106 0 106 -392 0 -393 0 0 -428z"/>
<path d="M2160 1381 c-151 -265 -241 -527 -284 -829 l-6 -42 134 0 134 0 12
73 c15 93 53 243 83 332 30 87 97 235 107 235 12 0 120 -243 120 -270 0 -5
-41 -11 -92 -12 l-92 -3 -23 -80 c-12 -44 -24 -90 -28 -102 l-5 -23 149 0 150
0 12 -75 12 -75 134 0 134 0 -6 48 c-16 114 -57 298 -90 398 -37 113 -132 319
-204 443 l-42 71 -129 0 -128 0 -52 -89z"/>
<path d="M3881 1455 c-176 -32 -304 -138 -436 -359 -137 -230 -209 -303 -320
-326 l-55 -11 0 -130 0 -130 48 6 c122 16 253 75 331 148 50 47 137 168 211
292 114 190 177 243 313 261 l48 7 -3 126 -3 126 -30 2 c-16 1 -63 -5 -104
-12z"/>
<path d="M4172 1378 c-158 -287 -245 -536 -280 -800 l-9 -68 133 0 c141 0 144
1 144 52 0 34 50 244 77 327 14 42 46 120 71 174 43 93 46 97 58 75 26 -45
104 -236 104 -252 0 -14 -14 -16 -90 -16 l-89 0 -10 -37 c-6 -21 -19 -68 -30
-105 l-20 -68 149 0 c167 0 155 6 166 -89 l7 -61 133 0 c156 0 144 -13 118
134 -47 273 -157 561 -298 784 l-26 42 -129 0 -128 0 -51 -92z"/>
<path d="M6079 1399 c-71 -123 -167 -330 -203 -440 -34 -104 -78 -294 -91
-396 l-7 -53 135 0 134 0 12 78 c17 103 56 258 87 340 33 90 95 222 104 222
17 0 124 -262 113 -274 -4 -3 -45 -6 -92 -6 l-86 0 -24 -87 c-13 -49 -26 -96
-28 -105 -5 -17 7 -18 144 -18 l150 0 12 -75 12 -75 135 0 134 0 -6 43 c-43
301 -133 563 -284 828 l-52 89 -128 0 -129 0 -42 -71z"/>
<path d="M4875 1421 c4 -22 7 -237 8 -476 l2 -436 335 3 c315 3 338 4 380 24
104 48 149 115 150 222 0 118 -60 201 -170 232 l-25 7 29 12 c55 22 89 54 114
109 21 47 24 64 20 129 -6 92 -38 144 -113 182 l-49 26 -344 3 -344 3 7 -40z
m522 -167 c29 -21 40 -64 29 -108 -9 -35 -57 -56 -130 -56 l-66 0 0 -95 0 -95
70 0 c117 0 160 -29 160 -107 0 -77 -60 -106 -208 -101 l-87 3 -3 294 -2 293
104 -4 c87 -3 110 -7 133 -24z"/>
<path d="M1483 1093 l-73 -4 0 -77 c0 -42 -3 -87 -6 -99 l-6 -23 176 0 176 0
0 105 0 105 -97 -2 c-54 -1 -131 -4 -170 -5z"/>
<path d="M1061 263 c-28 -35 -20 -58 35 -109 24 -22 44 -47 44 -56 0 -24 -30
-31 -51 -12 -15 13 -24 15 -41 7 l-22 -10 26 -26 c35 -35 80 -36 113 -2 36 36
31 60 -27 121 -36 39 -48 58 -41 65 8 8 17 8 31 0 21 -11 52 -5 52 10 0 15
-44 39 -71 39 -18 0 -35 -10 -48 -27z"/>
<path d="M3093 271 c-62 -39 -80 -117 -43 -179 37 -61 130 -78 194 -37 25 17
26 19 10 36 -16 18 -19 18 -35 3 -10 -9 -34 -16 -53 -17 -101 -3 -120 144 -22
169 14 3 39 -1 61 -12 33 -15 38 -15 52 -1 14 14 13 17 -11 33 -42 27 -115 29
-153 5z"/>
<path d="M3760 272 c-67 -33 -88 -129 -42 -191 39 -54 136 -64 192 -22 20 16
22 22 11 34 -11 14 -17 14 -51 -4 -26 -14 -47 -18 -62 -14 -92 28 -90 147 2
170 16 3 39 -2 62 -13 31 -16 39 -17 49 -6 15 18 3 33 -37 50 -45 19 -82 18
-124 -4z"/>
<path d="M1326 271 c-9 -14 -86 -214 -86 -223 0 -20 41 -6 52 17 10 22 17 25
64 25 47 0 52 -2 58 -25 5 -19 13 -25 32 -25 17 0 24 4 21 13 -3 6 -24 60 -47
120 -37 94 -45 107 -65 107 -13 0 -26 -4 -29 -9z m54 -123 c0 -13 -8 -18 -30
-18 -35 0 -35 -1 -14 48 l15 37 14 -25 c8 -14 14 -33 15 -42z"/>
<path d="M1530 160 l0 -120 53 0 c68 0 97 19 97 66 0 21 -7 40 -19 51 -17 14
-18 18 -5 38 11 16 12 29 5 47 -11 30 -29 38 -87 38 l-44 0 0 -120z m85 55 c0
-13 -8 -21 -22 -23 -19 -3 -23 1 -23 23 0 22 4 26 23 23 14 -2 22 -10 22 -23z
m11 -79 c15 -12 17 -18 8 -33 -15 -24 -58 -24 -62 0 -9 44 18 59 54 33z"/>
<path d="M1799 213 c-15 -38 -36 -92 -48 -120 l-21 -53 24 0 c15 0 27 9 34 25
10 22 18 25 62 25 44 0 52 -3 62 -25 7 -16 19 -25 34 -25 22 0 22 1 -18 103
-22 56 -43 110 -45 120 -3 10 -15 17 -32 17 -23 0 -29 -8 -52 -67z m69 -36
c16 -46 16 -47 -18 -47 -34 0 -34 1 -18 47 15 41 21 41 36 0z"/>
<path d="M2370 160 l0 -120 65 0 c56 0 69 3 95 27 55 49 51 147 -8 193 -19 15
-40 20 -88 20 l-64 0 0 -120z m130 60 c13 -13 20 -33 20 -60 0 -49 -27 -80
-70 -80 l-30 0 0 80 0 80 30 0 c17 0 39 -9 50 -20z"/>
<path d="M2632 178 c5 -95 7 -103 32 -125 36 -30 80 -30 111 2 23 22 25 31 25
125 0 93 -1 100 -20 100 -19 0 -20 -7 -20 -89 0 -81 -2 -91 -22 -105 -15 -11
-26 -12 -40 -5 -15 8 -18 23 -18 104 l0 95 -26 0 -27 0 5 -102z"/>
<path d="M2850 260 c0 -15 7 -20 25 -20 l25 0 0 -100 c0 -93 1 -100 20 -100
19 0 20 7 20 100 l0 100 25 0 c18 0 25 5 25 20 0 18 -7 20 -70 20 -63 0 -70
-2 -70 -20z"/>
<path d="M3330 160 c0 -113 1 -120 20 -120 18 0 20 7 20 56 l0 55 43 -3 42 -3
3 -52 c3 -45 6 -53 23 -53 18 0 19 8 19 120 0 113 -1 120 -20 120 -17 0 -20
-7 -20 -45 l0 -45 -45 0 -45 0 0 45 c0 38 -3 45 -20 45 -19 0 -20 -7 -20 -120z"/>
<path d="M4020 173 c-23 -59 -44 -114 -47 -121 -3 -8 4 -12 21 -12 19 0 27 6
32 25 6 23 11 25 58 25 47 0 54 -3 64 -25 10 -23 52 -37 52 -17 0 4 -19 57
-43 117 -38 98 -46 110 -69 113 -25 3 -28 -3 -68 -105z m86 2 c19 -45 19 -45
-16 -45 -20 0 -30 5 -30 15 0 15 21 65 27 65 2 0 11 -16 19 -35z"/>
<path d="M4250 160 l0 -120 25 0 c23 0 25 3 26 53 l0 52 27 -53 c20 -40 31
-52 49 -52 28 0 28 4 -1 59 l-23 43 25 25 c19 19 23 31 18 56 -9 44 -30 57
-93 57 l-53 0 0 -120z m98 53 c3 -19 -1 -23 -22 -23 -21 0 -26 5 -26 26 0 21
4 25 23 22 14 -2 23 -11 25 -25z"/>
<path d="M4470 160 l0 -120 25 0 25 0 0 120 0 120 -25 0 -25 0 0 -120z"/>
<path d="M4610 160 l0 -120 55 0 c42 0 60 5 75 20 26 26 26 74 -1 99 -13 12
-17 21 -10 26 16 10 13 61 -5 79 -10 10 -33 16 -65 16 l-49 0 0 -120z m85 55
c0 -13 -8 -21 -22 -23 -19 -3 -23 1 -23 23 0 22 4 26 23 23 14 -2 22 -10 22
-23z m20 -86 c15 -15 -8 -44 -39 -47 -23 -3 -26 0 -26 26 0 16 3 32 7 35 8 8
43 -1 58 -14z"/>
<path d="M4830 160 l0 -120 53 0 c68 0 97 19 97 66 0 21 -7 40 -19 51 -17 14
-18 18 -5 38 11 16 12 29 5 47 -11 30 -29 38 -87 38 l-44 0 0 -120z m85 55 c0
-13 -8 -21 -22 -23 -19 -3 -23 1 -23 23 0 22 4 26 23 23 14 -2 22 -10 22 -23z
m11 -79 c15 -12 17 -18 8 -33 -15 -24 -58 -24 -62 0 -9 44 18 59 54 33z"/>
<path d="M5040 160 l0 -120 70 0 c63 0 70 2 70 20 0 17 -7 20 -45 20 -45 0
-45 0 -45 35 0 35 0 35 45 35 38 0 45 3 45 20 0 17 -7 20 -45 20 -41 0 -45 2
-45 25 0 23 4 25 45 25 38 0 45 3 45 20 0 18 -7 20 -70 20 l-70 0 0 -120z"/>
<path d="M5269 160 l-46 -120 24 0 c16 0 27 8 33 25 8 22 15 25 60 25 44 0 52
-3 62 -25 7 -16 19 -25 34 -25 l24 0 -21 52 c-12 29 -32 83 -46 121 -22 59
-28 67 -52 67 -24 0 -29 -9 -72 -120z m90 19 c16 -46 14 -49 -19 -49 -34 0
-34 1 -18 47 15 41 23 42 37 2z"/>
<path d="M5510 160 l0 -120 25 0 c25 0 25 2 25 78 l0 77 51 -77 c40 -61 57
-78 75 -78 24 0 24 1 24 120 l0 120 -25 0 c-25 0 -25 -2 -25 -77 l0 -78 -51
78 c-40 60 -57 77 -75 77 -24 0 -24 -1 -24 -120z"/>
<path d="M2126 204 c-31 -30 -9 -84 34 -84 11 0 27 11 36 25 15 23 15 27 0 50
-19 29 -47 32 -70 9z"/>
</g>
</svg>
