<svg xmlns="http://www.w3.org/2000/svg" data-name="Layer 1" viewBox="0 0 512 640" x="0px" y="0px"><path d="M446.552,164.8q.525,0,1.056-.027a20.43,20.43,0,0,0,19.384-21.431h0a20.455,20.455,0,1,0-20.44,21.459Z"/><path d="M155.992,182.694c-4.155,7.135-7.77,13.337-11.673,17.449,1.17,3.157,5.481,8.847,21.4,8.142,13.668-.6,21.722,1.3,26.471,3.767,4.468-10.913,12.944-33.618,14.156-51.406a104.378,104.378,0,0,1-25.086-7.846C171.064,156.821,162.744,171.1,155.992,182.694Z"/><path d="M202.548,213.146c8.051-1.038,20.043-.423,34.145,7.185,13.244,7.145,22.141-4.039,24.7-7.887l-4.076-51.836a145.708,145.708,0,0,1-26.1,2.3,139.589,139.589,0,0,1-14.957-.8C214.858,179.952,207.339,201.148,202.548,213.146Z"/><path d="M139.933,246.262a284.458,284.458,0,0,0,39.912,10.724c2.979-3.332,8.751-10.969,6.669-18.186-1.85-6.413-1.793-11.984.173-16.559.213-.5.44-.952.674-1.379-2.666-1.366-8.621-3.145-21.2-2.586a54.77,54.77,0,0,1-11.67-.626c-.191.256-.384.509-.575.759a14.212,14.212,0,0,0-3.631,9.554C150.006,235.232,146.431,241.533,139.933,246.262Z"/><path d="M281.468,256.574q6.978-1.467,13.865-3.353a12.572,12.572,0,0,0-6-11.614c-6.278-4.078-9.193-10.484-8.206-18.037.1-.763.236-1.5.394-2.2a85.967,85.967,0,0,1-12.847-1.971,38.7,38.7,0,0,1-7.778,7.866,25.6,25.6,0,0,1-18.589,5.236c-.338,2.865-.159,7.5,2.345,13.905,2.149,5.5,2.372,10.525.72,14.974A246.958,246.958,0,0,0,281.468,256.574Z"/><path d="M91.352,280.14c2.359,7.367,13.672,14.6,31.037,19.853,8.229,2.489,13.289,3.1,18.094-.431,1.524-1.122,4.849-3.592,1.815-9.785-.752.033-1.491.051-2.213.051-1.119,0-2.2-.037-3.238-.1a54.37,54.37,0,0,1-18.347-4.542,4.96,4.96,0,0,1-2.109-7.245l.048-.074a4.915,4.915,0,0,1,6.146-1.771c8.225,3.7,28.737,9.593,49.323-10.5a289.632,289.632,0,0,1-49.779-15.326C109.566,256.423,88.194,270.284,91.352,280.14Z"/><path d="M390.555,213.389a5,5,0,0,1-1.954,4.846,293.061,293.061,0,0,1-26.707,17.627c6.451,4.722,15.309,12.516,18.316,21.445,9.168-2.824,29.18-8.8,55.305-15.523,10.346-2.661,26.277-11.385,35.577-23.868a38.846,38.846,0,0,0-12.444,6.013c-6.7,4.788-12.787,6.5-18.065,6.5-13.01,0-21.092-10.364-21.205-10.511a5,5,0,0,1,7.946-6.073c1.049,1.341,10.568,12.636,25.51,1.955A46.411,46.411,0,0,1,477,206.822a6.315,6.315,0,0,0,4.839-2.732,5.948,5.948,0,0,0,.772-5.231L478.076,184.5a6.123,6.123,0,0,0-5.384-4.286c-31.51-2.421-72.02,25.541-82.173,32.973C390.53,213.258,390.544,213.323,390.555,213.389Zm55.517-20a6.479,6.479,0,1,1-6.485,6.479A6.489,6.489,0,0,1,446.072,193.389Z"/><path d="M358.664,271.705a53.666,53.666,0,0,1,10.125-2.717c2.458-2.644,2.583-4.854,2.43-6.343-.813-7.918-12.644-17.157-19.064-21.348A267.381,267.381,0,0,1,325.2,253.783c-1.83,5.523-6.213,21.853,1.766,32.355,6.67,8.782,20.773,12,41.913,9.556,10.363-1.2,17.038-4.453,17.008-8.3-.029-3.726-5.154-8.325-9.792-8.787-4.824-.481-10.3,1.1-13.941,2.462a5,5,0,1,1-3.491-9.369Z"/><path d="M192.906,259.173a264.674,264.674,0,0,0,39.75,2.655c1.976-1.085,5.633-4.23,2.681-11.779-3.62-9.26-3.5-16.193-2.67-20.556-.241-.123-.482-.232-.722-.361-18.895-10.193-32.587-5.428-35.228-4.327-.7.774-2.733,3.813-.595,11.223,2.557,8.866-1.248,17.218-5.1,22.862C191.649,258.984,192.272,259.083,192.906,259.173Z"/><path d="M305.209,250.3a254.794,254.794,0,0,0,46.051-19.882c-.74-2.472-2.767-6.361-8.344-9.513-7.408-4.189-10.12-11.195-10.677-17.509-4.944.134-9.477,3.359-14.694,7.051-4.117,2.914-8.784,6.217-14.311,8.383a41.111,41.111,0,0,1-11.34,2.516c-1.172,3.111-2.221,8.559,2.886,11.877A22.444,22.444,0,0,1,305.209,250.3Z"/><path d="M312.636,264.872a63.926,63.926,0,0,1,1.068-6.853,254.161,254.161,0,0,1-30.433,8.394,258.884,258.884,0,0,1-53.009,5.431,275.4,275.4,0,0,1-39.169-2.829q-3.844-.552-7.557-1.193c-1.789,2.06-3.588,3.935-5.389,5.646C201.344,278.693,263.148,289,312.636,264.872Z"/><path d="M267.169,158.393l4.037,51.324c5.951,1.353,18.853,3.535,28.379-.2,4.394-1.722,8.354-4.525,12.183-7.235,6.184-4.377,12.568-8.9,20.765-8.9h.059a105.963,105.963,0,0,0-35.81-48.844C289.244,150.428,279.085,155.194,267.169,158.393Z"/><path d="M369.457,181.149c-3.771,4.074-9.64,8.356-17.422,7.854-6.16-.4-8.641,5.133-9.217,6.691a9.248,9.248,0,0,1-.334,1.348c-.57,3.029-1.416,11.327,5.354,15.156,7.011,3.963,10.476,8.981,12.188,13.141q10.223-6.156,20.123-13.306A112.441,112.441,0,0,0,369.457,181.149Z"/><path d="M208.649,150.9c.94-2.763.479-4.93-.1-7.67-.994-4.664-2.355-11.052,5.709-18.126,2.668-2.341,4.915-6.719,6.509-10.662a112.863,112.863,0,0,0-51,18.244C177.21,141.221,191.5,147.783,208.649,150.9Z"/><path d="M134.273,195.36c3.218-.767,8.917-10.553,13.077-17.7,6.573-11.289,13.831-23.748,23.741-30.661a47.93,47.93,0,0,1-9.382-8.37c-18.32,14.812-30.627,34.158-38.759,51.74C124.69,192.9,128.405,196.76,134.273,195.36Z"/><path d="M242.279,113.708q-5.377-.2-10.58-.038c-1.658,5.063-5.206,14-10.851,18.954-3.657,3.208-3.371,4.548-2.523,8.525a23.637,23.637,0,0,1,.321,11.143c4.1.4,8.3.614,12.57.614a134.238,134.238,0,0,0,25.136-2.342,30.153,30.153,0,0,0-4.272-4.763c-4.106-4.021-9.216-9.025-7.579-16.326A22.115,22.115,0,0,0,242.279,113.708Z"/><path d="M94.1,255.222l16.4-10.1c-3.155-1.5-5.591-2.755-7.228-3.631A180.323,180.323,0,0,1,43.333,259.97C56.249,262.034,73.5,261.96,94.1,255.222Z"/><path d="M108.911,233.142c3.487,1.809,9.883,4.938,18.654,8.478,3.6-1.3,12.4-5.358,12.726-14.037a23.346,23.346,0,0,1,4.227-13.281,22.738,22.738,0,0,1-4.633-3.362,19.609,19.609,0,0,1-4.183-5.667,20.492,20.492,0,0,1-3.933.4,19.6,19.6,0,0,1-13.128-5.231A193.216,193.216,0,0,0,108.911,233.142Z"/><path d="M253.492,114.517a32.028,32.028,0,0,1,.766,17.145c-.388,1.736,1.656,3.9,4.819,7,2.572,2.52,5.738,5.637,7.207,9.555,17.325-4.952,30.122-13.389,33.727-23.186a209.531,209.531,0,0,0-30.069-8.047Q261.538,115.353,253.492,114.517Z"/><path d="M352.679,179.024c5.242.35,9.325-4.155,11.376-7.026-10.98-16.592-28.162-32.181-54.721-43.365a32.034,32.034,0,0,1-5.246,8.86,115.11,115.11,0,0,1,35.379,45.966A17.746,17.746,0,0,1,352.679,179.024Z"/><path d="M390.165,88.167a32.439,32.439,0,0,0,8.421-23.6,32.847,32.847,0,0,0-57.135-20.259,32.444,32.444,0,0,0-8.421,23.6,32.818,32.818,0,0,0,32.76,31.048q.843,0,1.695-.043A32.647,32.647,0,0,0,390.165,88.167Z"/><path d="M63.993,88.912c.343,0,.691-.009,1.039-.026a20.145,20.145,0,1,0-1.039.026Z"/><path d="M131.418,418.056c-12.762-11.244-33.206-14.341-43.584-15.194,1.427,3.668,4.092,8.071,8.955,10.056,9.773,3.989,24.588,10.981,29.86,18.494a131.86,131.86,0,0,0,27.053-8.429c1.123-.483,2.255-.942,3.39-1.39-3.646-11.073-6.653-32.579.269-41.147,6.968-8.623,10.178-21.9,11.622-33.587a49.384,49.384,0,0,1-8.267,6.423c-37.967,23.768-32.693,46.166-30.757,51.433a54.083,54.083,0,0,1,8.071,5.837,5,5,0,1,1-6.612,7.5Z"/><path d="M468.116,478.484a59.576,59.576,0,0,1-7.286-11.954c-10.511-22.935-4.383-47.042,2.609-63.227,5.108-11.826,2.641-22.96-7.335-33.092a55.758,55.758,0,0,0-5.012-4.49c2.946,11.886,2.954,29.837-10.876,51.78-8.687,13.784-8.8,28.307-.328,43.168a72.159,72.159,0,0,0,14.663,17.815Z"/><path d="M481.8,478.484h5.515V458.728a60.58,60.58,0,0,0-21.765-25.5C462.887,460.2,477.537,474.843,481.8,478.484Z"/><path d="M409.64,457.538c-1.479-3.8-3.523-6.2-6.248-7.342-4.632-1.936-9.986.318-10.041.342a5,5,0,0,1-4.046-9.145c.933-.416,9.334-3.958,17.83-.47,5.344,2.195,9.322,6.563,11.824,12.984,4.831,12.4,13.084,18.708,19.174,21.823a76.646,76.646,0,0,1-6.932-10.109c-7.664-13.446-9.511-27.126-5.559-40.216-13.388-1.208-32.2.38-53.9,11.566-44.31,22.836-81.894,9.891-118.24-2.628-5.76-1.985-11.717-4.037-17.516-5.866a112.566,112.566,0,0,0-78.33,3.692,138.342,138.342,0,0,1-32.759,9.63,4.951,4.951,0,0,1-1.043.172,127.916,127.916,0,0,1-67.658-8.108,141.331,141.331,0,0,1-31.469-17.751l.2,62.372H424.368A51.181,51.181,0,0,1,409.64,457.538ZM44.7,466H39.549a5,5,0,1,1,0-10H44.7a5,5,0,0,1,0,10Zm109.333,0H64.866a5,5,0,1,1,0-10h89.162a5,5,0,1,1,0,10Z"/><path d="M114.184,433.142c-3.58-2.645-9.943-6.382-21.175-10.967-14.662-5.984-16.6-23.391-16.673-24.129a5,5,0,0,1,4.951-5.507H81.4c1.854,0,19.88.18,37.326,6.807a39.071,39.071,0,0,1,.533-10.425c1.7-9.163,6.366-17.911,13.931-26.172-33.975-13.257-61.7-15.982-79.431-15.829a130.312,130.312,0,0,0-29.064,3.213v53.075a128.307,128.307,0,0,0,35.628,21.537A116.578,116.578,0,0,0,114.184,433.142Z"/><path d="M165.14,386.731c-3.888,4.813-1.293,23.434,1.306,31.606a123.074,123.074,0,0,1,72.545.6c5.924,1.869,11.944,3.943,17.765,5.948,33.85,11.659,68.838,23.687,108.6,4.079a433.973,433.973,0,0,0-54.685-23.93C276.34,392.69,224.018,378.785,168.5,381.915A44.706,44.706,0,0,1,165.14,386.731Z"/><path d="M366.072,351.2a20.08,20.08,0,0,0,1.017,40.137c.344,0,.691-.009,1.038-.027a20.1,20.1,0,0,0,19.083-21.082h0A20.126,20.126,0,0,0,366.072,351.2Zm8.557,26.8a10.151,10.151,0,0,1-17.655-6.235,9.978,9.978,0,0,1,2.594-7.262,10.092,10.092,0,0,1,7.013-3.321c.175-.009.35-.012.525-.012a10.126,10.126,0,0,1,10.117,9.566A9.984,9.984,0,0,1,374.629,378.005Z"/><path d="M303.446,302.308a25.609,25.609,0,0,0,1.3,51.189c.439,0,.882-.011,1.325-.034a25.611,25.611,0,1,0-2.622-51.155Zm16.977,24.782a15.637,15.637,0,0,1-14.863,16.386,15.666,15.666,0,0,1-16.47-14.8A15.638,15.638,0,0,1,303.955,312.3c.271-.014.543-.021.812-.021A15.673,15.673,0,0,1,320.423,327.09Z"/><text x="0" y="527" fill="#000000" font-size="5px" font-weight="bold" font-family="'Helvetica Neue', Helvetica, Arial-Unicode, Arial, Sans-serif">Created by Icongeek26</text><text x="0" y="532" fill="#000000" font-size="5px" font-weight="bold" font-family="'Helvetica Neue', Helvetica, Arial-Unicode, Arial, Sans-serif">from the Noun Project</text></svg>